<?xml version="1.0" encoding="utf-8"?>
<!-- Generator: Adobe Illustrator 19.2.1, SVG Export Plug-In . SVG Version: 6.00 Build 0)  -->
<svg version="1.1" id="Calque_1" xmlns="http://www.w3.org/2000/svg" xmlns:xlink="http://www.w3.org/1999/xlink" x="0px" y="0px"
	 viewBox="0 0 277.7 83.8" style="enable-background:new 0 0 277.7 83.8;" xml:space="preserve">
<style type="text/css">
	.st0{fill:#D95E62;}
	.st1{stroke:#000000;stroke-miterlimit:10;}
	.st2{fill:#FFFFFF;}
</style>
<g>
	<g>
		<g>
			<path class="st0" d="M84.2,39.9c3,0,5.6-1,7.7-2.8v1.8c-2.2,1.5-4.9,2.4-7.7,2.4c-7.5,0-13.5-6-13.5-13.5s6-13.5,13.5-13.5
				c2.9,0,5.5,0.9,7.7,2.4v1.8c-2.1-1.8-4.8-2.8-7.7-2.8c-6.6,0-12.1,5.4-12.1,12.1S77.5,39.9,84.2,39.9z"/>
			<path class="st0" d="M84.2,41.9c-7.7,0-14-6.3-14-14s6.3-14,14-14c2.9,0,5.7,0.9,8,2.5l0.2,0.1v3.1L91.6,19
				c-2.1-1.8-4.7-2.7-7.4-2.7c-6.4,0-11.6,5.2-11.6,11.6s5.2,11.6,11.6,11.6c2.7,0,5.3-0.9,7.4-2.7l0.8-0.7v3.1l-0.2,0.1
				C89.8,41,87.1,41.9,84.2,41.9z M84.2,14.9c-7.2,0-13,5.8-13,13s5.8,13,13,13c2.6,0,5.1-0.8,7.2-2.2v-0.5
				c-2.1,1.5-4.6,2.3-7.2,2.3c-6.9,0-12.6-5.6-12.6-12.6s5.6-12.6,12.6-12.6c2.6,0,5.1,0.8,7.2,2.3v-0.5
				C89.3,15.6,86.8,14.9,84.2,14.9z"/>
		</g>
		<g>
			<path class="st0" d="M84.2,41.9c-7.7,0-14-6.3-14-14s6.3-14,14-14c2.9,0,5.7,0.9,8,2.5l0.2,0.1v3.1L91.6,19
				c-2.1-1.8-4.7-2.7-7.4-2.7c-6.4,0-11.6,5.2-11.6,11.6s5.2,11.6,11.6,11.6c2.7,0,5.3-0.9,7.4-2.7l0.8-0.7v3.1l-0.2,0.1
				C89.8,41,87.1,41.9,84.2,41.9z M84.2,14.9c-7.2,0-13,5.8-13,13s5.8,13,13,13c2.6,0,5.1-0.8,7.2-2.2v-0.5
				c-2.1,1.5-4.6,2.3-7.2,2.3c-6.9,0-12.6-5.6-12.6-12.6s5.6-12.6,12.6-12.6c2.6,0,5.1,0.8,7.2,2.3v-0.5
				C89.3,15.6,86.8,14.9,84.2,14.9z"/>
			<path class="st0" d="M84.2,42.4c-8,0-14.5-6.5-14.5-14.5s6.5-14.5,14.5-14.5c3,0,5.9,0.9,8.3,2.6l0.4,0.3v4.4l-1.6-1.4
				c-2-1.7-4.5-2.6-7.1-2.6c-6.1,0-11.1,5-11.1,11.1s5,11.1,11.1,11.1c2.6,0,5.1-0.9,7.1-2.6l1.6-1.4v4.4l-0.4,0.3
				C90,41.5,87.2,42.4,84.2,42.4z M70.7,27.9c0,7.4,6.1,13.5,13.5,13.5C76.7,41.4,70.7,35.3,70.7,27.9z M84.2,41.4L84.2,41.4
				L84.2,41.4z M84.2,41.4L84.2,41.4L84.2,41.4z M84.2,41.4L84.2,41.4L84.2,41.4z M84.2,41.4L84.2,41.4L84.2,41.4z M84.2,41.4
				L84.2,41.4L84.2,41.4z M90.9,39.6c-2,1.2-4.3,1.8-6.7,1.8C86.6,41.4,88.9,40.7,90.9,39.6z M84.2,39.9L84.2,39.9L84.2,39.9z
				 M84.2,39.9L84.2,39.9L84.2,39.9z M84.2,39.9L84.2,39.9L84.2,39.9z M84.2,39.9L84.2,39.9L84.2,39.9z M91.9,37.2V39l0,0V37.2
				c-0.3,0.2-0.5,0.4-0.8,0.5L91.9,37.2z M84.2,15.8c-6.6,0-12.1,5.4-12.1,12.1C72.1,21.2,77.5,15.8,84.2,15.8L84.2,15.8L84.2,15.8z
				 M91.1,18c0.3,0.2,0.5,0.4,0.8,0.6v-1.8v1.8L91.1,18z M84.2,14.4c2.4,0,4.7,0.6,6.7,1.8C88.9,15,86.6,14.4,84.2,14.4z M84.2,15.8
				L84.2,15.8L84.2,15.8z M84.2,15.8L84.2,15.8L84.2,15.8z M84.2,15.8L84.2,15.8L84.2,15.8z M84.2,14.4L84.2,14.4L84.2,14.4z
				 M84.2,14.4L84.2,14.4L84.2,14.4z M84.2,14.4L84.2,14.4L84.2,14.4z M84.2,14.4L84.2,14.4L84.2,14.4z M84.2,14.4L84.2,14.4
				L84.2,14.4z"/>
		</g>
	</g>
	<g>
		<g>
			<path class="st0" d="M95,14.4h1.4v15.5c1.3-1.6,3.1-2.7,5.3-2.7c3.7,0,6.8,3.2,6.8,7.1v7.1h-1.4v-7.1c0-3.1-2.3-5.7-5.3-5.7
				c-2.9,0-5.2,2.4-5.3,5.5v7.3H95V14.4z"/>
			<path class="st0" d="M109,41.9h-2.4v-7.6c0-2.9-2.2-5.2-4.8-5.2c-2.6,0-4.7,2.2-4.8,5v7.8h-2.4v-28H97v14.7
				c1.3-1.2,3-1.9,4.8-1.9c4,0,7.3,3.4,7.3,7.6v7.6H109z M107.6,40.9h0.4v-6.6c0-3.7-2.8-6.6-6.3-6.6c-1.9,0-3.7,0.9-4.9,2.5
				L96,31.3V14.9h-0.4v26H96v-6.8c0.1-3.4,2.7-6,5.8-6c3.2,0,5.8,2.8,5.8,6.2C107.6,34.3,107.6,40.9,107.6,40.9z"/>
		</g>
		<g>
			<path class="st0" d="M109,41.9h-2.4v-7.6c0-2.9-2.2-5.2-4.8-5.2c-2.6,0-4.7,2.2-4.8,5v7.8h-2.4v-28H97v14.7
				c1.3-1.2,3-1.9,4.8-1.9c4,0,7.3,3.4,7.3,7.6v7.6H109z M107.6,40.9h0.4v-6.6c0-3.7-2.8-6.6-6.3-6.6c-1.9,0-3.7,0.9-4.9,2.5
				L96,31.3V14.9h-0.4v26H96v-6.8c0.1-3.4,2.7-6,5.8-6c3.2,0,5.8,2.8,5.8,6.2C107.6,34.3,107.6,40.9,107.6,40.9z"/>
			<path class="st0" d="M109.5,42.4h-3.4v-8.1c0-2.6-1.9-4.7-4.3-4.7c-2.3,0-4.2,2-4.3,4.5v8.3H94v-29h3.4v14.2
				c1.3-0.9,2.8-1.4,4.3-1.4c4.3,0,7.8,3.6,7.8,8.1C109.5,34.3,109.5,42.4,109.5,42.4z M107.1,41.4h1.4v-7.1v7.1H107.1z M95,41.4
				h1.4H95z M101.8,28.6c2.9,0,5.3,2.6,5.3,5.7C107.1,31.1,104.7,28.6,101.8,28.6L101.8,28.6L101.8,28.6z M96.5,14.4v15.5
				c0.3-0.3,0.5-0.6,0.8-0.9l-0.8,0.8V14.4z M97.4,28.8L97.4,28.8L97.4,28.8z M97.6,28.7c-0.1,0-0.1,0.1-0.2,0.1
				C97.5,28.8,97.6,28.7,97.6,28.7z M97.6,28.7L97.6,28.7L97.6,28.7z M101.7,27.1L101.7,27.1L101.7,27.1z M101.8,27.1L101.8,27.1
				L101.8,27.1z M101.8,27.1L101.8,27.1L101.8,27.1z M101.8,27.1L101.8,27.1L101.8,27.1z"/>
		</g>
	</g>
	<g>
		<g>
			<path class="st0" d="M123.7,38.7c-1.3,1.7-3.2,2.7-5.3,2.7c-3.7,0-6.7-3.2-6.7-7.1s3-7.1,6.7-7.1c2.2,0,4.1,1,5.3,2.7v-2h1.4
				v13.5h-1.4V38.7z M118.4,39.9c3.5,0,5.3-2.7,5.3-5.5c0-2.9-1.9-5.9-5.3-5.9c-3,0-5.3,2.6-5.3,5.7S115.4,39.9,118.4,39.9z"/>
			<path class="st0" d="M125.7,41.9h-2.4V40c-1.3,1.2-3,1.9-4.8,1.9c-4,0-7.2-3.4-7.2-7.6s3.2-7.6,7.2-7.6c1.8,0,3.5,0.7,4.8,1.9
				v-1.2h2.4V41.9z M124.2,40.9h0.4V28.4h-0.4v3l-0.9-1.2c-1.2-1.6-3-2.5-4.9-2.5c-3.4,0-6.2,3-6.2,6.6s2.8,6.6,6.2,6.6
				c1.9,0,3.7-0.9,4.9-2.5l0.9-1.2V40.9z M118.4,40.4c-3.2,0-5.8-2.8-5.8-6.2c0-3.4,2.6-6.2,5.8-6.2c3.8,0,5.8,3.3,5.8,6.4
				C124.2,37.4,122.2,40.4,118.4,40.4z M118.4,29.1c-2.6,0-4.8,2.3-4.8,5.2c0,2.9,2.1,5.2,4.8,5.2c3.3,0,4.8-2.6,4.8-5
				C123.2,31.8,121.5,29.1,118.4,29.1z"/>
		</g>
		<g>
			<path class="st0" d="M125.7,41.9h-2.4V40c-1.3,1.2-3,1.9-4.8,1.9c-4,0-7.2-3.4-7.2-7.6s3.2-7.6,7.2-7.6c1.8,0,3.5,0.7,4.8,1.9
				v-1.2h2.4V41.9z M124.2,40.9h0.4V28.4h-0.4v3l-0.9-1.2c-1.2-1.6-3-2.5-4.9-2.5c-3.4,0-6.2,3-6.2,6.6s2.8,6.6,6.2,6.6
				c1.9,0,3.7-0.9,4.9-2.5l0.9-1.2V40.9z M118.4,40.4c-3.2,0-5.8-2.8-5.8-6.2c0-3.4,2.6-6.2,5.8-6.2c3.8,0,5.8,3.3,5.8,6.4
				C124.2,37.4,122.2,40.4,118.4,40.4z M118.4,29.1c-2.6,0-4.8,2.3-4.8,5.2c0,2.9,2.1,5.2,4.8,5.2c3.3,0,4.8-2.6,4.8-5
				C123.2,31.8,121.5,29.1,118.4,29.1z"/>
			<path class="st0" d="M126.2,42.4h-3.4V41c-1.3,0.9-2.8,1.4-4.3,1.4c-4.3,0-7.7-3.6-7.7-8.1s3.5-8.1,7.7-8.1
				c1.6,0,3.1,0.5,4.3,1.4v-0.7h3.4V42.4z M123.7,41.4h1.4V27.9v13.5H123.7z M111.7,34.3c0,3.9,3,7.1,6.7,7.1l0,0l0,0
				C114.7,41.4,111.7,38.2,111.7,34.3z M118.4,41.4L118.4,41.4L118.4,41.4z M118.4,41.4L118.4,41.4L118.4,41.4z M118.4,41.4
				L118.4,41.4L118.4,41.4z M123.7,38.7c-0.4,0.5-0.8,0.9-1.2,1.3c0.1-0.1,0.2-0.2,0.4-0.3l0.8-0.8
				C123.7,38.9,123.7,38.7,123.7,38.7z M118.4,29.6c-2.4,0-4.3,2.1-4.3,4.7s1.9,4.7,4.3,4.7c3,0,4.3-2.3,4.3-4.5
				C122.7,32.1,121.2,29.6,118.4,29.6z M122,28.3c0.6,0.4,1.2,1,1.7,1.6v-0.2l-0.8-0.8C122.6,28.7,122.3,28.5,122,28.3z M118.4,27.1
				L118.4,27.1L118.4,27.1z M118.4,27.1L118.4,27.1L118.4,27.1z M118.4,27.1L118.4,27.1L118.4,27.1z M118.4,27.1L118.4,27.1
				L118.4,27.1z"/>
		</g>
	</g>
	<g>
		<g>
			<path class="st0" d="M140.3,34.3c0-3.1-2.3-5.7-5.3-5.7c-2.9,0-5.2,2.4-5.3,5.5v7.3h-1.4V27.9h1.4v2c1.3-1.6,3.1-2.7,5.3-2.7
				c3.7,0,6.8,3.2,6.8,7.1v7.1h-1.4v-7.1H140.3z"/>
			<path class="st0" d="M142.3,41.9h-2.4v-7.6c0-2.9-2.2-5.2-4.8-5.2s-4.7,2.2-4.8,5v7.8h-2.4V27.4h2.4v1.2c1.3-1.2,3-1.9,4.8-1.9
				c4,0,7.3,3.4,7.3,7.6v7.6H142.3z M140.8,40.9h0.4v-6.6c0-3.7-2.8-6.6-6.3-6.6c-1.9,0-3.7,0.9-4.9,2.5l-0.9,1.1v-2.9h-0.4v12.5
				h0.4v-6.8c0.1-3.4,2.7-6,5.8-6c3.2,0,5.8,2.8,5.8,6.2L140.8,40.9L140.8,40.9z"/>
		</g>
		<g>
			<path class="st0" d="M142.3,41.9h-2.4v-7.6c0-2.9-2.2-5.2-4.8-5.2s-4.7,2.2-4.8,5v7.8h-2.4V27.4h2.4v1.2c1.3-1.2,3-1.9,4.8-1.9
				c4,0,7.3,3.4,7.3,7.6v7.6H142.3z M140.8,40.9h0.4v-6.6c0-3.7-2.8-6.6-6.3-6.6c-1.9,0-3.7,0.9-4.9,2.5l-0.9,1.1v-2.9h-0.4v12.5
				h0.4v-6.8c0.1-3.4,2.7-6,5.8-6c3.2,0,5.8,2.8,5.8,6.2L140.8,40.9L140.8,40.9z"/>
			<path class="st0" d="M142.8,42.4h-3.4v-8.1c0-2.6-1.9-4.7-4.3-4.7c-2.3,0-4.2,2-4.3,4.5v8.3h-3.4V26.9h3.4v0.7
				c1.3-0.9,2.8-1.4,4.3-1.4c4.3,0,7.8,3.6,7.8,8.1v8.1H142.8z M140.3,41.4h1.4v-7.1v7.1H140.3z M128.3,41.4h1.4H128.3z M135,28.6
				c2.9,0,5.3,2.6,5.3,5.7C140.3,31.1,137.9,28.6,135,28.6L135,28.6L135,28.6z M129.7,27.9v2c0.3-0.3,0.5-0.6,0.8-0.9l-0.8,0.8V27.9
				z M130.7,28.8L130.7,28.8L130.7,28.8z M130.9,28.7c-0.1,0-0.1,0.1-0.2,0.1C130.7,28.8,130.8,28.7,130.9,28.7z M135,27.1L135,27.1
				L135,27.1z M135,27.1L135,27.1L135,27.1z M135,27.1L135,27.1L135,27.1z M135,27.1L135,27.1L135,27.1z"/>
		</g>
	</g>
	<g>
		<g>
			<path class="st0" d="M144.9,27.1h1.4V14.4h1.4v12.8h2.9v1.4h-2.9v9.1c0,1.3,0.9,2.2,2.2,2.2c0.7,0,1.2-0.2,1.6-0.7l1,1.1
				c-0.7,0.7-1.6,1-2.6,1c-2,0-3.6-1.6-3.6-3.6v-9.1h-1.4L144.9,27.1L144.9,27.1z"/>
			<path class="st0" d="M150,41.9c-2.3,0-4.1-1.9-4.1-4.1v-8.6h-1.4v-2.4h1.4V13.9h2.4v12.8h2.9v2.4h-2.9v8.6c0,1,0.7,1.7,1.7,1.7
				c0.6,0,0.9-0.2,1.2-0.5l0.4-0.4l1.7,1.9l-0.3,0.3C152.1,41.4,151.1,41.9,150,41.9z M145.4,28.1h1.4v9.6c0,1.7,1.4,3.1,3.1,3.1
				c0.7,0,1.3-0.2,1.9-0.6l-0.3-0.3c-0.4,0.3-1,0.5-1.6,0.5c-1.5,0-2.7-1.2-2.7-2.7v-9.6h2.9v-0.4h-2.9V14.9h-0.4v12.8h-1.4V28.1z"
				/>
		</g>
		<g>
			<path class="st0" d="M150,41.9c-2.3,0-4.1-1.9-4.1-4.1v-8.6h-1.4v-2.4h1.4V13.9h2.4v12.8h2.9v2.4h-2.9v8.6c0,1,0.7,1.7,1.7,1.7
				c0.6,0,0.9-0.2,1.2-0.5l0.4-0.4l1.7,1.9l-0.3,0.3C152.1,41.4,151.1,41.9,150,41.9z M145.4,28.1h1.4v9.6c0,1.7,1.4,3.1,3.1,3.1
				c0.7,0,1.3-0.2,1.9-0.6l-0.3-0.3c-0.4,0.3-1,0.5-1.6,0.5c-1.5,0-2.7-1.2-2.7-2.7v-9.6h2.9v-0.4h-2.9V14.9h-0.4v12.8h-1.4V28.1z"
				/>
			<path class="st0" d="M150,42.4c-2.6,0-4.6-2.1-4.6-4.6v-8.1H144v-3.4h1.4V13.4h3.4v12.8h2.9v3.4h-2.9v8.1c0,0.7,0.5,1.2,1.2,1.2
				c0.5,0,0.7-0.2,0.9-0.3l0.7-0.9l2.4,2.6l-0.7,0.7C152.4,41.9,151.3,42.4,150,42.4z M146.3,37.7c0,2,1.6,3.6,3.6,3.6
				C148,41.4,146.3,39.7,146.3,37.7z M150,41.4L150,41.4L150,41.4z M150,41.4L150,41.4L150,41.4z M152.2,40.7L152.2,40.7
				c-0.6,0.4-1.4,0.7-2.2,0.7C150.8,41.4,151.5,41.1,152.2,40.7z M152.3,40l0.2,0.3L152.3,40z M150,39.9L150,39.9L150,39.9z
				 M150,39.9L150,39.9L150,39.9z M151.6,39.2L151.6,39.2c-0.1,0.1-0.2,0.2-0.3,0.3L151.6,39.2L151.6,39.2z M147.8,28.6v9.1V28.6
				h2.9v-1.4v1.4H147.8z M144.9,28.6h1.4H144.9z M147.8,27.1V14.4V27.1z"/>
		</g>
	</g>
	<g>
		<g>
			<path class="st0" d="M167.9,38.7c-1.3,1.7-3.2,2.7-5.3,2.7c-3.7,0-6.7-3.2-6.7-7.1s3-7.1,6.7-7.1c2.2,0,4.1,1,5.3,2.7v-2h1.4
				v13.5h-1.4V38.7z M162.6,39.9c3.5,0,5.3-2.7,5.3-5.5c0-2.9-1.9-5.9-5.3-5.9c-3,0-5.3,2.6-5.3,5.7S159.7,39.9,162.6,39.9z"/>
			<path class="st0" d="M169.9,41.9h-2.4V40c-1.3,1.2-3,1.9-4.8,1.9c-4,0-7.2-3.4-7.2-7.6s3.2-7.6,7.2-7.6c1.8,0,3.5,0.7,4.8,1.9
				v-1.2h2.4V41.9z M168.4,40.9h0.4V28.4h-0.4v3l-0.9-1.2c-1.2-1.6-3-2.5-4.9-2.5c-3.4,0-6.2,3-6.2,6.6s2.8,6.6,6.2,6.6
				c1.9,0,3.7-0.9,4.9-2.5l0.9-1.2V40.9z M162.6,40.4c-3.2,0-5.8-2.8-5.8-6.2c0-3.4,2.6-6.2,5.8-6.2c3.8,0,5.8,3.3,5.8,6.4
				C168.4,37.4,166.4,40.4,162.6,40.4z M162.6,29.1c-2.6,0-4.8,2.3-4.8,5.2c0,2.9,2.1,5.2,4.8,5.2c3.3,0,4.8-2.6,4.8-5
				C167.4,31.8,165.8,29.1,162.6,29.1z"/>
		</g>
		<g>
			<path class="st0" d="M169.9,41.9h-2.4V40c-1.3,1.2-3,1.9-4.8,1.9c-4,0-7.2-3.4-7.2-7.6s3.2-7.6,7.2-7.6c1.8,0,3.5,0.7,4.8,1.9
				v-1.2h2.4V41.9z M168.4,40.9h0.4V28.4h-0.4v3l-0.9-1.2c-1.2-1.6-3-2.5-4.9-2.5c-3.4,0-6.2,3-6.2,6.6s2.8,6.6,6.2,6.6
				c1.9,0,3.7-0.9,4.9-2.5l0.9-1.2V40.9z M162.6,40.4c-3.2,0-5.8-2.8-5.8-6.2c0-3.4,2.6-6.2,5.8-6.2c3.8,0,5.8,3.3,5.8,6.4
				C168.4,37.4,166.4,40.4,162.6,40.4z M162.6,29.1c-2.6,0-4.8,2.3-4.8,5.2c0,2.9,2.1,5.2,4.8,5.2c3.3,0,4.8-2.6,4.8-5
				C167.4,31.8,165.8,29.1,162.6,29.1z"/>
			<path class="st0" d="M170.4,42.4H167V41c-1.3,0.9-2.8,1.4-4.3,1.4c-4.3,0-7.7-3.6-7.7-8.1s3.5-8.1,7.7-8.1c1.6,0,3.1,0.5,4.3,1.4
				v-0.7h3.4V42.4z M167.9,41.4h1.4V27.9v13.5H167.9z M155.9,34.3c0,3.9,3,7.1,6.7,7.1l0,0l0,0C158.9,41.4,155.9,38.2,155.9,34.3z
				 M162.6,41.4L162.6,41.4L162.6,41.4z M162.6,41.4L162.6,41.4L162.6,41.4z M162.6,41.4L162.6,41.4L162.6,41.4z M167.9,38.7
				c-0.4,0.5-0.8,0.9-1.2,1.3c0.1-0.1,0.2-0.2,0.4-0.3l0.8-0.8V38.7z M162.6,29.6c-2.4,0-4.3,2.1-4.3,4.7s1.9,4.7,4.3,4.7
				c3,0,4.3-2.3,4.3-4.5C166.9,32.1,165.4,29.6,162.6,29.6z M166.3,28.3c0.6,0.4,1.2,1,1.7,1.6v-0.2l-0.8-0.8
				C166.8,28.7,166.6,28.5,166.3,28.3z M162.6,27.1L162.6,27.1L162.6,27.1z M162.6,27.1L162.6,27.1L162.6,27.1z M162.6,27.1
				L162.6,27.1L162.6,27.1z M162.6,27.1L162.6,27.1L162.6,27.1z"/>
		</g>
	</g>
	<g>
		<g>
			<path class="st0" d="M172.5,14.4h1.4v27h-1.4V14.4z"/>
			<path class="st0" d="M174.4,41.9H172v-28h2.4V41.9z M173,40.9h0.4v-26H173V40.9z"/>
		</g>
		<g>
			<path class="st0" d="M174.4,41.9H172v-28h2.4V41.9z M173,40.9h0.4v-26H173V40.9z"/>
			<path class="st0" d="M174.9,42.4h-3.4v-29h3.4V42.4z M172.5,41.4h1.4v-27v27H172.5z"/>
		</g>
	</g>
	<g>
		<g>
			<path class="st0" d="M185.2,39.9H198v1.4h-14.2v-27h1.4V39.9z"/>
			<path class="st0" d="M198.5,41.9h-15.2v-28h2.4v25.6h12.8V41.9z M184.2,40.9h13.2v-0.4h-12.8V14.9h-0.4V40.9z"/>
		</g>
		<g>
			<path class="st0" d="M198.5,41.9h-15.2v-28h2.4v25.6h12.8V41.9z M184.2,40.9h13.2v-0.4h-12.8V14.9h-0.4V40.9z"/>
			<path class="st0" d="M199,42.4h-16.2v-29h3.4V39H199V42.4z M183.7,41.4H198V40v1.4H183.7z M185.2,39.9V14.4V39.9z"/>
		</g>
	</g>
	<g>
		<g>
			<path class="st0" d="M214.3,38.7c-1.3,1.7-3.2,2.7-5.3,2.7c-3.7,0-6.7-3.2-6.7-7.1v-7.1h1.4v7.1c0,3.1,2.3,5.7,5.3,5.7
				c2.9,0,5.2-2.4,5.3-5.4v-7.4h1.4v14.2h-1.4V38.7z"/>
			<path class="st0" d="M216.3,41.9h-2.4V40c-1.3,1.2-3,1.9-4.8,1.9c-4,0-7.2-3.4-7.2-7.6v-7.6h2.4v7.6c0,2.9,2.1,5.2,4.8,5.2
				c2.6,0,4.7-2.2,4.8-4.9v-7.9h2.4V41.9z M214.8,40.9h0.4V27.6h-0.4v6.9c-0.1,3.3-2.7,5.9-5.8,5.9c-3.2,0-5.8-2.8-5.8-6.2v-6.6
				h-0.4v6.6c0,3.6,2.8,6.6,6.2,6.6c1.9,0,3.7-0.9,4.9-2.5l0.9-1.2L214.8,40.9L214.8,40.9z"/>
		</g>
		<g>
			<path class="st0" d="M216.3,41.9h-2.4V40c-1.3,1.2-3,1.9-4.8,1.9c-4,0-7.2-3.4-7.2-7.6v-7.6h2.4v7.6c0,2.9,2.1,5.2,4.8,5.2
				c2.6,0,4.7-2.2,4.8-4.9v-7.9h2.4V41.9z M214.8,40.9h0.4V27.6h-0.4v6.9c-0.1,3.3-2.7,5.9-5.8,5.9c-3.2,0-5.8-2.8-5.8-6.2v-6.6
				h-0.4v6.6c0,3.6,2.8,6.6,6.2,6.6c1.9,0,3.7-0.9,4.9-2.5l0.9-1.2L214.8,40.9L214.8,40.9z"/>
			<path class="st0" d="M216.8,42.4h-3.4V41c-1.3,0.9-2.8,1.4-4.3,1.4c-4.3,0-7.7-3.6-7.7-8.1v-8.1h3.4v8.1c0,2.6,1.9,4.7,4.3,4.7
				c2.3,0,4.2-1.9,4.3-4.4v-8.3h3.4V42.4z M214.3,41.4h1.4V27.1v14.2h-1.4V41.4z M202.3,34.3c0,3.9,3,7.1,6.7,7.1l0,0l0,0
				C205.3,41.4,202.3,38.2,202.3,34.3z M209,41.4L209,41.4L209,41.4z M209,41.4L209,41.4L209,41.4z M209,41.4L209,41.4L209,41.4z
				 M214.3,38.7c-0.4,0.6-1,1.1-1.5,1.5c0.2-0.2,0.5-0.4,0.7-0.6l0.8-0.8V38.7z M203.7,27.1v7.1V27.1z"/>
		</g>
	</g>
	<g>
		<g>
			<path class="st0" d="M232.1,27.9h1.4v22.5h-1.4V38.6c-1.3,1.7-3.2,2.7-5.3,2.7c-3.7,0-6.7-3.2-6.7-7.1s3-7.1,6.7-7.1
				c2.2,0,4.1,1,5.3,2.7V27.9z M226.8,39.9c3.3,0,5.3-2.8,5.3-5.7s-1.7-5.7-5.3-5.7c-3,0-5.3,2.5-5.3,5.7S223.9,39.9,226.8,39.9z"/>
			<path class="st0" d="M234.1,50.9h-2.4v-11c-1.3,1.2-3,1.9-4.8,1.9c-4,0-7.2-3.4-7.2-7.6s3.2-7.6,7.2-7.6c1.8,0,3.5,0.7,4.8,1.9
				v-1.2h2.4V50.9z M232.6,49.9h0.4V28.4h-0.4v3l-0.9-1.2c-1.2-1.6-3-2.5-4.9-2.5c-3.4,0-6.2,3-6.2,6.6c0,3.7,2.8,6.6,6.2,6.6
				c1.9,0,3.7-0.9,4.9-2.5l0.9-1.2V49.9z M226.8,40.4c-3.2,0-5.8-2.8-5.8-6.2c0-3.4,2.6-6.2,5.8-6.2c4,0,5.8,3.2,5.8,6.2
				C232.6,37.3,230.5,40.4,226.8,40.4z M226.8,29.1c-2.7,0-4.8,2.3-4.8,5.2c0,2.9,2.1,5.2,4.8,5.2c3,0,4.8-2.6,4.8-5.2
				C231.6,31.7,230.1,29.1,226.8,29.1z"/>
		</g>
		<g>
			<path class="st0" d="M234.1,50.9h-2.4v-11c-1.3,1.2-3,1.9-4.8,1.9c-4,0-7.2-3.4-7.2-7.6s3.2-7.6,7.2-7.6c1.8,0,3.5,0.7,4.8,1.9
				v-1.2h2.4V50.9z M232.6,49.9h0.4V28.4h-0.4v3l-0.9-1.2c-1.2-1.6-3-2.5-4.9-2.5c-3.4,0-6.2,3-6.2,6.6c0,3.7,2.8,6.6,6.2,6.6
				c1.9,0,3.7-0.9,4.9-2.5l0.9-1.2V49.9z M226.8,40.4c-3.2,0-5.8-2.8-5.8-6.2c0-3.4,2.6-6.2,5.8-6.2c4,0,5.8,3.2,5.8,6.2
				C232.6,37.3,230.5,40.4,226.8,40.4z M226.8,29.1c-2.7,0-4.8,2.3-4.8,5.2c0,2.9,2.1,5.2,4.8,5.2c3,0,4.8-2.6,4.8-5.2
				C231.6,31.7,230.1,29.1,226.8,29.1z"/>
			<path class="st0" d="M234.6,51.4h-3.4V41c-1.3,0.9-2.8,1.4-4.3,1.4c-4.3,0-7.7-3.6-7.7-8.1s3.5-8.1,7.7-8.1
				c1.6,0,3.1,0.5,4.3,1.4V27h3.4V51.4z M232.1,50.4h1.4V27.9v22.5H232.1z M220.1,34.2c0,3.9,3,7.1,6.7,7.1l0,0l0,0
				C223.1,41.4,220.1,38.2,220.1,34.2z M226.8,41.4L226.8,41.4L226.8,41.4z M226.8,41.4L226.8,41.4L226.8,41.4z M226.8,41.4
				L226.8,41.4L226.8,41.4z M232.1,38.6c-0.5,0.6-1,1.1-1.6,1.6c0.3-0.2,0.5-0.4,0.8-0.6l0.8-0.8V38.6z M221.5,34.2
				c0,3.1,2.4,5.7,5.3,5.7c3.3,0,5.3-2.9,5.3-5.7c0,2.8-2,5.7-5.3,5.7C223.9,39.9,221.5,37.4,221.5,34.2z M226.8,29.6
				c-2.4,0-4.3,2-4.3,4.7c0,2.6,1.9,4.7,4.3,4.7c2.7,0,4.3-2.4,4.3-4.7C231.1,32.1,230,29.6,226.8,29.6z M230.6,28.3
				c0.6,0.4,1.1,0.9,1.5,1.5v-0.2l-0.8-0.8C231.1,28.7,230.8,28.5,230.6,28.3z M226.8,27.1L226.8,27.1L226.8,27.1z M226.8,27.1
				L226.8,27.1L226.8,27.1z M226.8,27.1L226.8,27.1L226.8,27.1z M226.8,27.1L226.8,27.1L226.8,27.1z"/>
		</g>
	</g>
	<g>
		<g>
			<path class="st0" d="M249.9,38.7c-1.3,1.7-3.2,2.7-5.3,2.7c-3.7,0-6.7-3.2-6.7-7.1v-7.1h1.4v7.1c0,3.1,2.3,5.7,5.3,5.7
				c2.9,0,5.2-2.4,5.3-5.4v-7.4h1.4v14.2h-1.4V38.7z"/>
			<path class="st0" d="M251.9,41.9h-2.4V40c-1.3,1.2-3,1.9-4.8,1.9c-4,0-7.2-3.4-7.2-7.6v-7.6h2.4v7.6c0,2.9,2.1,5.2,4.8,5.2
				c2.6,0,4.7-2.2,4.8-4.9v-7.9h2.4V41.9z M250.4,40.9h0.4V27.6h-0.4v6.9c-0.1,3.3-2.7,5.9-5.8,5.9c-3.2,0-5.8-2.8-5.8-6.2v-6.6
				h-0.4v6.6c0,3.6,2.8,6.6,6.2,6.6c1.9,0,3.7-0.9,4.9-2.5l0.9-1.2L250.4,40.9L250.4,40.9z"/>
		</g>
		<g>
			<path class="st0" d="M251.9,41.9h-2.4V40c-1.3,1.2-3,1.9-4.8,1.9c-4,0-7.2-3.4-7.2-7.6v-7.6h2.4v7.6c0,2.9,2.1,5.2,4.8,5.2
				c2.6,0,4.7-2.2,4.8-4.9v-7.9h2.4V41.9z M250.4,40.9h0.4V27.6h-0.4v6.9c-0.1,3.3-2.7,5.9-5.8,5.9c-3.2,0-5.8-2.8-5.8-6.2v-6.6
				h-0.4v6.6c0,3.6,2.8,6.6,6.2,6.6c1.9,0,3.7-0.9,4.9-2.5l0.9-1.2L250.4,40.9L250.4,40.9z"/>
			<path class="st0" d="M252.4,42.4H249V41c-1.3,0.9-2.8,1.4-4.3,1.4c-4.3,0-7.7-3.6-7.7-8.1v-8.1h3.4v8.1c0,2.6,1.9,4.7,4.3,4.7
				c2.3,0,4.2-1.9,4.3-4.4v-8.3h3.4V42.4z M249.9,41.4h1.4V27.1v14.2h-1.4V41.4z M237.9,34.3c0,3.9,3,7.1,6.7,7.1l0,0l0,0
				C240.9,41.4,237.9,38.2,237.9,34.3z M244.6,41.4L244.6,41.4L244.6,41.4z M244.6,41.4L244.6,41.4L244.6,41.4z M244.6,41.4
				L244.6,41.4L244.6,41.4z M249.9,38.7c-0.4,0.6-1,1.1-1.5,1.5c0.2-0.2,0.5-0.4,0.7-0.6l0.8-0.8V38.7z M239.3,27.1v7.1V27.1z"/>
		</g>
	</g>
	<g>
		<g>
			<path class="st0" d="M267.2,39.3c-1.3,1.3-2.9,2.1-4.8,2.1c-3.7,0-6.7-3.2-6.7-7.1s3-7.1,6.7-7.1s6.8,3.2,6.8,7.1h-12.1
				c0,3.1,2.3,5.7,5.3,5.7c1.5,0,2.8-0.6,3.7-1.6L267.2,39.3z M257.3,32.8h10.3c-0.6-2.4-2.7-4.2-5.1-4.2S257.9,30.4,257.3,32.8z"/>
			<path class="st0" d="M262.4,41.9c-4,0-7.2-3.4-7.2-7.6s3.2-7.6,7.2-7.6s7.3,3.4,7.3,7.6v0.5h-12c0.2,2.6,2.2,4.7,4.8,4.7
				c1.3,0,2.5-0.5,3.4-1.5l0.4-0.4l1.7,1.7l-0.4,0.4C266.1,41.1,264.3,41.9,262.4,41.9z M262.4,27.6c-3.4,0-6.2,3-6.2,6.6
				s2.8,6.6,6.2,6.6c1.5,0,2.9-0.5,4-1.6l-0.3-0.3c-1,0.9-2.4,1.4-3.7,1.4c-3.2,0-5.8-2.8-5.8-6.2v-0.5h12
				C268.4,30.3,265.7,27.6,262.4,27.6z M268.2,33.3h-11.6l0.2-0.6c0.7-2.7,3-4.6,5.6-4.6s5,1.9,5.6,4.6L268.2,33.3z M258,32.3h8.9
				c-0.7-1.9-2.5-3.2-4.5-3.2S258.7,30.4,258,32.3z"/>
		</g>
		<g>
			<path class="st0" d="M262.4,41.9c-4,0-7.2-3.4-7.2-7.6s3.2-7.6,7.2-7.6s7.3,3.4,7.3,7.6v0.5h-12c0.2,2.6,2.2,4.7,4.8,4.7
				c1.3,0,2.5-0.5,3.4-1.5l0.4-0.4l1.7,1.7l-0.4,0.4C266.1,41.1,264.3,41.9,262.4,41.9z M262.4,27.6c-3.4,0-6.2,3-6.2,6.6
				s2.8,6.6,6.2,6.6c1.5,0,2.9-0.5,4-1.6l-0.3-0.3c-1,0.9-2.4,1.4-3.7,1.4c-3.2,0-5.8-2.8-5.8-6.2v-0.5h12
				C268.4,30.3,265.7,27.6,262.4,27.6z M268.2,33.3h-11.6l0.2-0.6c0.7-2.7,3-4.6,5.6-4.6s5,1.9,5.6,4.6L268.2,33.3z M258,32.3h8.9
				c-0.7-1.9-2.5-3.2-4.5-3.2S258.7,30.4,258,32.3z"/>
			<path class="st0" d="M262.4,42.4c-4.3,0-7.7-3.6-7.7-8.1s3.5-8.1,7.7-8.1c4.3,0,7.8,3.6,7.8,8.1v1h-12c0.4,2.1,2.1,3.7,4.2,3.7
				c1.1,0,2.2-0.5,3-1.3l0.7-0.7l2.4,2.4l-0.7,0.7C266.3,41.6,264.5,42.4,262.4,42.4z M255.7,34.3c0,3.9,3,7.1,6.7,7.1
				C258.7,41.4,255.7,38.2,255.7,34.3z M262.4,41.4L262.4,41.4L262.4,41.4z M262.4,41.4L262.4,41.4L262.4,41.4z M262.4,41.4
				L262.4,41.4L262.4,41.4z M266.5,39.9c-1.2,0.9-2.6,1.4-4,1.4C263.9,41.4,265.3,40.9,266.5,39.9z M262.4,39.9L262.4,39.9
				L262.4,39.9z M262.4,39.9L262.4,39.9L262.4,39.9z M262.4,39.9L262.4,39.9L262.4,39.9z M262.4,39.9L262.4,39.9z M262.4,39.9
				L262.4,39.9L262.4,39.9z M266.2,38.3l0.4,0.4L266.2,38.3c-0.1,0.1-0.2,0.2-0.3,0.3L266.2,38.3z M257.1,34.3h12.1H257.1z
				 M262.4,27.1c3.4,0,6.2,2.6,6.7,6.1C268.6,29.8,265.8,27.2,262.4,27.1z M257.3,32.8h10.3l0,0H257.3L257.3,32.8L257.3,32.8z
				 M267.3,31.9c0,0.1,0.1,0.1,0.1,0.2l0,0C267.3,32.1,267.3,32,267.3,31.9z M258.7,31.8h7.4c-0.8-1.4-2.2-2.2-3.7-2.2
				C260.9,29.6,259.5,30.4,258.7,31.8z M262.4,28.6L262.4,28.6z M262.4,28.6L262.4,28.6L262.4,28.6z M262.4,28.6L262.4,28.6
				L262.4,28.6z M262.4,28.6L262.4,28.6L262.4,28.6z M262.4,28.6L262.4,28.6L262.4,28.6z M262.4,27.1L262.4,27.1L262.4,27.1z
				 M262.4,27.1L262.4,27.1L262.4,27.1z"/>
		</g>
	</g>
	<path class="st1" d="M86.3,64.1H75.8l-2.3,5.7h-1.2l8.1-20.2h1.2l8.1,20.2h-1.1L86.3,64.1z M76.2,63h9.6L81,51L76.2,63z"/>
	<path class="st1" d="M92.6,64.4v5.5h-1.1V59.2h1.1v2c0.5-0.7,1.2-1.2,1.9-1.6c0.6-0.3,1.3-0.5,2-0.5v1.1c-0.4,0-0.8,0.1-1.2,0.2
		C93.7,61,92.6,62.5,92.6,64.4z"/>
	<path class="st1" d="M98.3,59.2h1.1v-9.6h1.1v9.6h2.2v1.1h-2.2v6.9c0,0.9,0.7,1.6,1.6,1.6c0.5,0,0.9-0.2,1.2-0.5l0.7,0.8
		c-0.5,0.5-1.2,0.8-1.9,0.8c-1.5,0-2.7-1.2-2.7-2.7v-6.9h-1.1C98.3,60.3,98.3,59.2,98.3,59.2z"/>
	<path class="st1" d="M105.8,62h6.7v1.1h-6.7V62z"/>
	<path class="st1" d="M114.3,59.2h1.1v-9.6h1.1v9.6h2.2v1.1h-2.2v6.9c0,0.9,0.7,1.6,1.6,1.6c0.5,0,0.9-0.2,1.2-0.5l0.7,0.8
		c-0.5,0.5-1.2,0.8-1.9,0.8c-1.5,0-2.7-1.2-2.7-2.7v-6.9h-1.1C114.3,60.3,114.3,59.2,114.3,59.2z"/>
	<path class="st1" d="M121.8,49.6h1.1v11.6c0.9-1.2,2.3-2,4-2c2.8,0,5.1,2.4,5.1,5.3v5.3h-1.1v-5.3c0-2.3-1.8-4.3-4-4.3
		s-3.9,1.8-4,4.1v5.5h-1.1C121.8,69.8,121.8,49.6,121.8,49.6z"/>
	<path class="st1" d="M142.3,68.3c-0.9,0.9-2.2,1.5-3.6,1.5c-2.8,0-5-2.4-5-5.3s2.2-5.3,5-5.3s5.1,2.4,5.1,5.3h-9
		c0,2.3,1.8,4.2,4,4.2c1.1,0,2.1-0.5,2.8-1.2L142.3,68.3z M134.9,63.5h7.7c-0.5-1.8-2-3.2-3.9-3.2C136.9,60.3,135.3,61.6,134.9,63.5
		z M137.1,58l-0.4-0.7l3.4-2.2l0.5,0.9L137.1,58z"/>
	<path class="st1" d="M146.6,64.4v5.5h-1.1V59.2h1.1v2c0.5-0.7,1.2-1.2,1.9-1.6c0.6-0.3,1.3-0.5,2-0.5v1.1c-0.4,0-0.8,0.1-1.2,0.2
		C147.8,61,146.7,62.5,146.6,64.4z"/>
	<path class="st1" d="M161.4,67.8c-0.9,1.3-2.4,2-4,2c-2.8,0-5-2.4-5-5.3s2.2-5.3,5-5.3c1.6,0,3.1,0.8,4,2.1v-1.5h1.1v10.1h-1.1
		V67.8z M157.4,68.8c2.6,0,4-2,4-4.1c0-2.2-1.4-4.4-4-4.4c-2.2,0-4,1.9-4,4.3C153.4,66.9,155.2,68.8,157.4,68.8z"/>
	<path class="st1" d="M164.2,76.6V59.7h1.1v1.5c0.9-1.3,2.4-2,4-2c2.8,0,5,2.4,5,5.3c0,2.9-2.2,5.3-5,5.3c-1.6,0-3.1-0.8-4-2.1v8.8
		L164.2,76.6L164.2,76.6z M169.3,60.3c-2.6,0-4,2.1-4,4.1c0,2.2,1.4,4.4,4,4.4c2.2,0,4-1.9,4-4.3C173.3,62.2,171.5,60.3,169.3,60.3z
		"/>
	<path class="st1" d="M184.7,68.3c-0.9,0.9-2.2,1.5-3.6,1.5c-2.8,0-5-2.4-5-5.3s2.2-5.3,5-5.3s5.1,2.4,5.1,5.3h-9
		c0,2.3,1.8,4.2,4,4.2c1.1,0,2.1-0.5,2.8-1.2L184.7,68.3z M177.3,63.5h7.7c-0.5-1.8-2-3.2-3.9-3.2C179.3,60.3,177.8,61.6,177.3,63.5
		z"/>
	<path class="st1" d="M197,67.8c-0.9,1.3-2.4,2-4,2c-2.8,0-5-2.4-5-5.3v-5.3h1.1v5.3c0,2.3,1.8,4.2,4,4.2s3.9-1.8,4-4v-5.5h1.1v10.7
		H197V67.8z"/>
	<path class="st1" d="M199.9,59.2h1.1v-9.6h1.1v9.6h2.2v1.1H202v6.9c0,0.9,0.7,1.6,1.6,1.6c0.5,0,0.9-0.2,1.2-0.5l0.7,0.8
		c-0.5,0.5-1.2,0.8-1.9,0.8c-1.5,0-2.7-1.2-2.7-2.7v-6.9h-1.1L199.9,59.2L199.9,59.2z"/>
	<path class="st1" d="M216,68.3c-0.9,0.9-2.2,1.5-3.6,1.5c-2.8,0-5-2.4-5-5.3s2.2-5.3,5-5.3s5.1,2.4,5.1,5.3h-9c0,2.3,1.8,4.2,4,4.2
		c1.1,0,2.1-0.5,2.8-1.2L216,68.3z M208.6,63.5h7.7c-0.5-1.8-2-3.2-3.9-3.2S209,61.6,208.6,63.5z"/>
</g>
<path class="st2" d="M30.9,9.9c-0.2-1.8,0.2-2.6,1.6-3.2c1.4-0.5,2.9,0,3.7,1.3c0.4,0.7,0.6,1.5,0.7,2.2c0.8,5,1.6,10,2.3,15.1
	c0.4,2.7,0.6,5.4,1,8.1c0.1,0.4,0.3,1.1,0.5,1.1c0.4,0,1.1-0.1,1.4-0.5c0.5-0.6,0.9-1.4,1.1-2.2c1.4-6,2.8-12,4.2-18
	c0.1-0.3,0.2-0.5,0.2-0.8c0.5-1.4,1.6-2.1,2.9-2c1.2,0.2,2.3,1.4,2.2,2.8c-0.1,1.8-0.2,3.6-0.5,5.4c-0.8,5.5-1.7,10.9-2.5,16.4
	c-0.5,3.9-0.8,7.9,1.1,11.7c0.5,1,1.1,1.9,1.6,2.7c0.4,0.6,0.9,0.8,1.5,0.4c1.8-1,3.6-2,5.3-3.1c2-1.3,3.9-2.7,6.2-3.2
	c1.3-0.3,2.7-0.4,4-0.2s2.3,1,2.7,2.4c0.3,0.8,0.1,1.4-0.6,1.8c-0.6,0.4-1.2,0.9-1.9,1.2c-1.5,0.6-2.7,1.6-3.8,2.8
	c-2.7,2.8-5.5,5.6-8.1,8.4c-1.1,1.2-1.8,2.6-2.9,3.8c-1.4,1.7-2.8,3.3-4.4,4.8c-1.9,1.7-4.2,2.6-6.8,2.8c-3.2,0.2-6.4,0.7-9.6,0.6
	c-3.5,0-6.1-1.8-7.6-5c-2.2-4.9-4-10-4.7-15.4c-0.5-3.3-2-5.9-4.5-8.1c-3.2-2.8-6.3-5.7-9.4-8.6c-1-1-1.8-2.3-2.5-3.5
	c-0.8-1.3-0.5-2.2,0.5-2.9c1-0.7,1.9-0.6,3,0.3c2.8,2.5,5.5,5,8.3,7.3c1.3,1.1,2.7,1.9,4.1,2.7c1,0.6,2,0.5,3.1,0
	c0.5-0.3,0.7-0.6,0.4-1.2c-1-2-1.8-4.1-3-6c-2.3-3.9-3.5-8.3-5.2-12.4c-0.4-0.9-0.7-1.8-1-2.7c-0.4-1.4,0.2-2.8,1.4-3.3
	c1.4-0.6,3-0.2,3.7,1.1c0.9,1.7,1.5,3.6,2.4,5.4c2.1,4.1,4.2,8.2,6.3,12.2c0.3,0.5,0.7,1,1.2,1.4c0.8,0.7,1.6,0.4,2-0.6
	c0.2-0.5,0.3-1.1,0.3-1.7c-0.2-3.1-0.5-6.1-0.8-9.2C32.1,22.2,31.4,13.9,30.9,9.9z"/>
</svg>
